<svg width="25" height="25" viewBox="0 0 25 25" fill="none" xmlns="http://www.w3.org/2000/svg">
<path fill-rule="evenodd" clip-rule="evenodd" d="M12.5 2.08334C6.75 2.08334 2.08333 6.75001 2.08333 12.5C2.08333 18.25 6.75 22.9167 12.5 22.9167C18.25 22.9167 22.9167 18.25 22.9167 12.5C22.9167 6.75001 18.25 2.08334 12.5 2.08334ZM11.4583 7.29168V11.4583H7.29166V13.5417H11.4583V17.7083H13.5417V13.5417H17.7083V11.4583H13.5417V7.29168H11.4583ZM4.16666 12.5C4.16666 17.0938 7.90624 20.8333 12.5 20.8333C17.0937 20.8333 20.8333 17.0938 20.8333 12.5C20.8333 7.90626 17.0937 4.16668 12.5 4.16668C7.90624 4.16668 4.16666 7.90626 4.16666 12.5Z" fill="#54D1ED"/>
<path fill-rule="evenodd" clip-rule="evenodd" d="M12.5 2.08334C6.75 2.08334 2.08333 6.75001 2.08333 12.5C2.08333 18.25 6.75 22.9167 12.5 22.9167C18.25 22.9167 22.9167 18.25 22.9167 12.5C22.9167 6.75001 18.25 2.08334 12.5 2.08334ZM11.4583 7.29168V11.4583H7.29166V13.5417H11.4583V17.7083H13.5417V13.5417H17.7083V11.4583H13.5417V7.29168H11.4583ZM4.16666 12.5C4.16666 17.0938 7.90624 20.8333 12.5 20.8333C17.0937 20.8333 20.8333 17.0938 20.8333 12.5C20.8333 7.90626 17.0937 4.16668 12.5 4.16668C7.90624 4.16668 4.16666 7.90626 4.16666 12.5Z" fill="url(#paint0_linear)" fill-opacity="0.4" style="mix-blend-mode:multiply"/>
<defs>
<linearGradient id="paint0_linear" x1="12.5" y1="2.08334" x2="12.5" y2="22.9167" gradientUnits="userSpaceOnUse">
<stop stop-color="#2C52D8" stop-opacity="0"/>
<stop offset="1" stop-color="#2C52D8"/>
</linearGradient>
</defs>
</svg>
