<svg width="23" height="19" viewBox="0 0 23 19" fill="none" xmlns="http://www.w3.org/2000/svg">
<path d="M23 2.71006C23 1.21334 21.7831 -0.0151994 20.2951 0.14673C15.9863 0.615651 11.8566 2.19912 8.32283 4.7619C4.78906 7.32468 2.00101 10.7581 0.216715 14.7081C-0.399443 16.0721 0.39026 17.6105 1.81293 18.0754C3.2356 18.5404 4.74929 17.7526 5.40611 16.4077C6.80777 13.5376 8.89706 11.0409 11.5049 9.14962C14.1128 7.25834 17.135 6.04805 20.2985 5.60736C21.7809 5.40085 23 4.20679 23 2.71006Z" fill="#54D1ED"/>
<path d="M23 2.71006C23 1.21334 21.7831 -0.0151994 20.2951 0.14673C15.9863 0.615651 11.8566 2.19912 8.32283 4.7619C4.78906 7.32468 2.00101 10.7581 0.216715 14.7081C-0.399443 16.0721 0.39026 17.6105 1.81293 18.0754C3.2356 18.5404 4.74929 17.7526 5.40611 16.4077C6.80777 13.5376 8.89706 11.0409 11.5049 9.14962C14.1128 7.25834 17.135 6.04805 20.2985 5.60736C21.7809 5.40085 23 4.20679 23 2.71006Z" fill="url(#paint0_linear)" fill-opacity="0.4" style="mix-blend-mode:multiply"/>
<defs>
<linearGradient id="paint0_linear" x1="23" y1="0" x2="23" y2="50" gradientUnits="userSpaceOnUse">
<stop stop-color="#2C52D8" stop-opacity="0"/>
<stop offset="1" stop-color="#2C52D8"/>
</linearGradient>
</defs>
</svg>
