<svg width="120" height="120" viewBox="0 0 120 120" fill="none" xmlns="http://www.w3.org/2000/svg">
<g opacity="0.4">
<path opacity="0.9" d="M100.511 15.7406C111.41 25.7169 118.245 39.3644 119.706 54.068L110.75 54.9578C109.508 42.4598 103.699 30.8594 94.4339 22.3795L100.511 15.7406Z" fill="#58506B"/>
<path opacity="0.8" d="M119.776 54.8167C121.052 69.5374 116.852 84.2115 107.98 96.0273L100.783 90.6232C108.324 80.5798 111.894 68.1068 110.809 55.5942L119.776 54.8167Z" fill="#58506B"/>
<path opacity="0.7" d="M107.579 96.5551C101.106 104.979 92.5134 111.534 82.678 115.549L79.2763 107.217C87.6364 103.804 94.9403 98.2323 100.442 91.0719L107.579 96.5551Z" fill="#58506B"/>
<path opacity="0.6" d="M82.1462 115.763C72.9063 119.433 62.8993 120.749 53.0248 119.593C43.1502 118.437 33.7177 114.846 25.5749 109.142L30.7387 101.771C37.66 106.619 45.6777 109.672 54.0711 110.654C62.4644 111.637 70.9703 110.518 78.8243 107.399L82.1462 115.763Z" fill="#58506B"/>
<path opacity="0.5" d="M25.2684 108.926C18.6154 104.203 12.9955 98.1725 8.75232 91.2038L16.4395 86.5232C20.0462 92.4467 24.8231 97.5723 30.4781 101.587L25.2684 108.926Z" fill="#58506B"/>
<path opacity="0.4" d="M8.50433 90.7928C4.4403 83.9964 1.76183 76.4628 0.623338 68.6262L9.52984 67.3323C10.4976 73.9933 12.7743 80.3969 16.2287 86.1739L8.50433 90.7928Z" fill="#58506B"/>
<path opacity="0.3" d="M0.553473 68.1308C-0.557145 60.0108 0.00753972 51.7494 2.2127 43.856L10.8808 46.2776C9.00641 52.987 8.52643 60.0092 9.47045 66.9112L0.553473 68.1308Z" fill="#58506B"/>
<path opacity="0.2" d="M2.37616 43.282C5.68294 31.8841 12.2956 21.7229 21.3777 14.0836L27.1711 20.971C19.4512 27.4645 13.8305 36.1015 11.0197 45.7897L2.37616 43.282Z" fill="#58506B"/>
<path opacity="0.1" d="M21.9669 13.5943C32.494 4.96659 45.6417 0.174454 59.2515 0.00466835L59.3638 9.00397C47.7954 9.14829 36.6199 13.2216 27.6719 20.5552L21.9669 13.5943Z" fill="#58506B"/>
</g>
</svg>
